<mxfile host="app.diagrams.net" modified="2021-03-19T11:44:52.922Z" agent="5.0 (Windows NT 10.0; Win64; x64) AppleWebKit/537.36 (KHTML, like Gecko) Chrome/87.0.4280.88 Safari/537.36" etag="MJ7nCoccw67L-eOS1XER" version="14.4.9" type="github">
  <diagram id="kgpKYQtTHZ0yAKxKKP6v" name="Page-1">
    <mxGraphModel dx="1422" dy="785" grid="1" gridSize="10" guides="1" tooltips="1" connect="1" arrows="1" fold="1" page="1" pageScale="1" pageWidth="850" pageHeight="1100" math="0" shadow="0">
      <root>
        <mxCell id="0" />
        <mxCell id="1" parent="0" />
        <mxCell id="6Au5uzRVC5VlOYL2ylWA-2" value="Pool" style="swimlane;html=1;childLayout=stackLayout;resizeParent=1;resizeParentMax=0;startSize=20;" parent="1" vertex="1">
          <mxGeometry x="40" y="40" width="1450" height="1070" as="geometry">
            <mxRectangle x="40" y="40" width="60" height="20" as="alternateBounds" />
          </mxGeometry>
        </mxCell>
        <mxCell id="6Au5uzRVC5VlOYL2ylWA-3" value="CA" style="swimlane;html=1;startSize=20;" parent="6Au5uzRVC5VlOYL2ylWA-2" vertex="1">
          <mxGeometry y="20" width="360" height="1050" as="geometry">
            <mxRectangle y="20" width="30" height="720" as="alternateBounds" />
          </mxGeometry>
        </mxCell>
        <mxCell id="6Au5uzRVC5VlOYL2ylWA-20" style="edgeStyle=orthogonalEdgeStyle;rounded=0;orthogonalLoop=1;jettySize=auto;html=1;exitX=0;exitY=0.5;exitDx=0;exitDy=0;entryX=0;entryY=0.5;entryDx=0;entryDy=0;" parent="6Au5uzRVC5VlOYL2ylWA-3" source="6Au5uzRVC5VlOYL2ylWA-17" target="6Au5uzRVC5VlOYL2ylWA-19" edge="1">
          <mxGeometry relative="1" as="geometry" />
        </mxCell>
        <mxCell id="6Au5uzRVC5VlOYL2ylWA-17" value="Validate Identity&amp;nbsp;&lt;br&gt;(是怎么验证申请者的身份信息的呢？)" style="whiteSpace=wrap;html=1;" parent="6Au5uzRVC5VlOYL2ylWA-3" vertex="1">
          <mxGeometry x="80" y="70" width="210" height="40" as="geometry" />
        </mxCell>
        <mxCell id="6Au5uzRVC5VlOYL2ylWA-25" style="edgeStyle=orthogonalEdgeStyle;rounded=0;orthogonalLoop=1;jettySize=auto;html=1;exitX=0;exitY=0.5;exitDx=0;exitDy=0;entryX=0;entryY=0.5;entryDx=0;entryDy=0;" parent="6Au5uzRVC5VlOYL2ylWA-3" source="6Au5uzRVC5VlOYL2ylWA-18" target="6Au5uzRVC5VlOYL2ylWA-19" edge="1">
          <mxGeometry relative="1" as="geometry">
            <Array as="points">
              <mxPoint x="60" y="155" />
              <mxPoint x="60" y="265" />
            </Array>
          </mxGeometry>
        </mxCell>
        <mxCell id="6Au5uzRVC5VlOYL2ylWA-18" value="private key" style="whiteSpace=wrap;html=1;" parent="6Au5uzRVC5VlOYL2ylWA-3" vertex="1">
          <mxGeometry x="145" y="140" width="80" height="30" as="geometry" />
        </mxCell>
        <mxCell id="6Au5uzRVC5VlOYL2ylWA-19" value="Generate &lt;b&gt;Signed Certificate&lt;/b&gt;&amp;nbsp;&lt;br&gt;and Send back to Applicant.&lt;br&gt;(具体是怎么 sign 的？)" style="whiteSpace=wrap;html=1;" parent="6Au5uzRVC5VlOYL2ylWA-3" vertex="1">
          <mxGeometry x="80" y="240" width="210" height="50" as="geometry" />
        </mxCell>
        <mxCell id="6Au5uzRVC5VlOYL2ylWA-4" value="Server" style="swimlane;html=1;startSize=20;" parent="6Au5uzRVC5VlOYL2ylWA-2" vertex="1">
          <mxGeometry x="360" y="20" width="460" height="1050" as="geometry" />
        </mxCell>
        <mxCell id="6Au5uzRVC5VlOYL2ylWA-27" value="hashing (MD5 or SHA)&lt;br&gt;(不可逆)" style="edgeStyle=orthogonalEdgeStyle;rounded=0;orthogonalLoop=1;jettySize=auto;html=1;exitX=0.5;exitY=1;exitDx=0;exitDy=0;entryX=0.5;entryY=0;entryDx=0;entryDy=0;" parent="6Au5uzRVC5VlOYL2ylWA-4" source="6Au5uzRVC5VlOYL2ylWA-6" target="6Au5uzRVC5VlOYL2ylWA-9" edge="1">
          <mxGeometry relative="1" as="geometry" />
        </mxCell>
        <mxCell id="6Au5uzRVC5VlOYL2ylWA-30" style="edgeStyle=orthogonalEdgeStyle;rounded=0;orthogonalLoop=1;jettySize=auto;html=1;exitX=1;exitY=0.5;exitDx=0;exitDy=0;entryX=0;entryY=0.5;entryDx=0;entryDy=0;" parent="6Au5uzRVC5VlOYL2ylWA-4" source="6Au5uzRVC5VlOYL2ylWA-6" target="6Au5uzRVC5VlOYL2ylWA-29" edge="1">
          <mxGeometry relative="1" as="geometry">
            <Array as="points">
              <mxPoint x="180" y="365" />
              <mxPoint x="180" y="455" />
            </Array>
          </mxGeometry>
        </mxCell>
        <mxCell id="6Au5uzRVC5VlOYL2ylWA-6" value="data（数据）" style="whiteSpace=wrap;html=1;" parent="6Au5uzRVC5VlOYL2ylWA-4" vertex="1">
          <mxGeometry x="30" y="350" width="80" height="30" as="geometry" />
        </mxCell>
        <mxCell id="6Au5uzRVC5VlOYL2ylWA-28" value="encrypt (with &lt;b&gt;private key&lt;/b&gt;)" style="edgeStyle=orthogonalEdgeStyle;rounded=0;orthogonalLoop=1;jettySize=auto;html=1;exitX=0.5;exitY=1;exitDx=0;exitDy=0;entryX=0.5;entryY=0;entryDx=0;entryDy=0;" parent="6Au5uzRVC5VlOYL2ylWA-4" source="6Au5uzRVC5VlOYL2ylWA-9" target="6Au5uzRVC5VlOYL2ylWA-10" edge="1">
          <mxGeometry relative="1" as="geometry" />
        </mxCell>
        <mxCell id="6Au5uzRVC5VlOYL2ylWA-9" value="digest（摘要）" style="whiteSpace=wrap;html=1;" parent="6Au5uzRVC5VlOYL2ylWA-4" vertex="1">
          <mxGeometry x="25" y="440" width="90" height="30" as="geometry" />
        </mxCell>
        <mxCell id="6Au5uzRVC5VlOYL2ylWA-32" value="append&amp;nbsp;digital signature to the data" style="edgeStyle=orthogonalEdgeStyle;rounded=0;orthogonalLoop=1;jettySize=auto;html=1;exitX=1;exitY=0.5;exitDx=0;exitDy=0;entryX=0;entryY=0.5;entryDx=0;entryDy=0;" parent="6Au5uzRVC5VlOYL2ylWA-4" source="6Au5uzRVC5VlOYL2ylWA-10" target="6Au5uzRVC5VlOYL2ylWA-29" edge="1">
          <mxGeometry x="0.1064" relative="1" as="geometry">
            <Array as="points">
              <mxPoint x="180" y="545" />
              <mxPoint x="180" y="455" />
            </Array>
            <mxPoint as="offset" />
          </mxGeometry>
        </mxCell>
        <mxCell id="6Au5uzRVC5VlOYL2ylWA-10" value="digital signature" style="whiteSpace=wrap;html=1;" parent="6Au5uzRVC5VlOYL2ylWA-4" vertex="1">
          <mxGeometry x="25" y="530" width="90" height="30" as="geometry" />
        </mxCell>
        <mxCell id="6Au5uzRVC5VlOYL2ylWA-16" style="edgeStyle=orthogonalEdgeStyle;rounded=0;orthogonalLoop=1;jettySize=auto;html=1;exitX=0;exitY=0.5;exitDx=0;exitDy=0;entryX=1;entryY=0.5;entryDx=0;entryDy=0;" parent="6Au5uzRVC5VlOYL2ylWA-4" source="6Au5uzRVC5VlOYL2ylWA-12" target="6Au5uzRVC5VlOYL2ylWA-13" edge="1">
          <mxGeometry relative="1" as="geometry" />
        </mxCell>
        <mxCell id="6Au5uzRVC5VlOYL2ylWA-12" value="public key" style="whiteSpace=wrap;html=1;" parent="6Au5uzRVC5VlOYL2ylWA-4" vertex="1">
          <mxGeometry x="290" y="100" width="80" height="30" as="geometry" />
        </mxCell>
        <mxCell id="6Au5uzRVC5VlOYL2ylWA-11" value="private key" style="whiteSpace=wrap;html=1;" parent="6Au5uzRVC5VlOYL2ylWA-4" vertex="1">
          <mxGeometry x="290" y="160" width="80" height="30" as="geometry" />
        </mxCell>
        <mxCell id="6Au5uzRVC5VlOYL2ylWA-13" value="生成 CSR &lt;br&gt;(Certificate &lt;b&gt;signing&lt;/b&gt; Request)" style="whiteSpace=wrap;html=1;" parent="6Au5uzRVC5VlOYL2ylWA-4" vertex="1">
          <mxGeometry x="30" y="70" width="170" height="40" as="geometry" />
        </mxCell>
        <mxCell id="6Au5uzRVC5VlOYL2ylWA-15" style="edgeStyle=orthogonalEdgeStyle;rounded=0;orthogonalLoop=1;jettySize=auto;html=1;exitX=0;exitY=0.5;exitDx=0;exitDy=0;entryX=1;entryY=0.5;entryDx=0;entryDy=0;" parent="6Au5uzRVC5VlOYL2ylWA-4" source="6Au5uzRVC5VlOYL2ylWA-14" target="6Au5uzRVC5VlOYL2ylWA-13" edge="1">
          <mxGeometry relative="1" as="geometry" />
        </mxCell>
        <mxCell id="6Au5uzRVC5VlOYL2ylWA-14" value="Identiifying Information" style="whiteSpace=wrap;html=1;" parent="6Au5uzRVC5VlOYL2ylWA-4" vertex="1">
          <mxGeometry x="290" y="45" width="80" height="30" as="geometry" />
        </mxCell>
        <mxCell id="6Au5uzRVC5VlOYL2ylWA-23" value="certificate" style="whiteSpace=wrap;html=1;" parent="6Au5uzRVC5VlOYL2ylWA-4" vertex="1">
          <mxGeometry x="30" y="250" width="80" height="30" as="geometry" />
        </mxCell>
        <mxCell id="6Au5uzRVC5VlOYL2ylWA-29" value="signed data&lt;br&gt;(data &amp;amp; digital signature)" style="whiteSpace=wrap;html=1;" parent="6Au5uzRVC5VlOYL2ylWA-4" vertex="1">
          <mxGeometry x="260" y="440" width="150" height="30" as="geometry" />
        </mxCell>
        <mxCell id="6Au5uzRVC5VlOYL2ylWA-5" value="User" style="swimlane;html=1;startSize=20;" parent="6Au5uzRVC5VlOYL2ylWA-2" vertex="1">
          <mxGeometry x="820" y="20" width="630" height="1050" as="geometry">
            <mxRectangle x="770" y="20" width="30" height="460" as="alternateBounds" />
          </mxGeometry>
        </mxCell>
        <mxCell id="6Au5uzRVC5VlOYL2ylWA-39" value="hashing" style="edgeStyle=orthogonalEdgeStyle;rounded=0;orthogonalLoop=1;jettySize=auto;html=1;exitX=1;exitY=0.5;exitDx=0;exitDy=0;" parent="6Au5uzRVC5VlOYL2ylWA-5" source="6Au5uzRVC5VlOYL2ylWA-33" target="6Au5uzRVC5VlOYL2ylWA-38" edge="1">
          <mxGeometry relative="1" as="geometry" />
        </mxCell>
        <mxCell id="6Au5uzRVC5VlOYL2ylWA-33" value="data" style="whiteSpace=wrap;html=1;" parent="6Au5uzRVC5VlOYL2ylWA-5" vertex="1">
          <mxGeometry x="45" y="410" width="80" height="30" as="geometry" />
        </mxCell>
        <mxCell id="6Au5uzRVC5VlOYL2ylWA-41" value="decrypt (with public key)&lt;br&gt;(这里的 public key 是怎么来到 User 这里的？)" style="edgeStyle=orthogonalEdgeStyle;rounded=0;orthogonalLoop=1;jettySize=auto;html=1;exitX=1;exitY=0.5;exitDx=0;exitDy=0;entryX=0;entryY=0.5;entryDx=0;entryDy=0;" parent="6Au5uzRVC5VlOYL2ylWA-5" source="6Au5uzRVC5VlOYL2ylWA-35" target="6Au5uzRVC5VlOYL2ylWA-40" edge="1">
          <mxGeometry relative="1" as="geometry" />
        </mxCell>
        <mxCell id="6Au5uzRVC5VlOYL2ylWA-35" value="digital signature" style="whiteSpace=wrap;html=1;" parent="6Au5uzRVC5VlOYL2ylWA-5" vertex="1">
          <mxGeometry x="45" y="465" width="90" height="30" as="geometry" />
        </mxCell>
        <mxCell id="6Au5uzRVC5VlOYL2ylWA-45" style="edgeStyle=orthogonalEdgeStyle;rounded=0;orthogonalLoop=1;jettySize=auto;html=1;exitX=1;exitY=0.5;exitDx=0;exitDy=0;entryX=0.5;entryY=0;entryDx=0;entryDy=0;entryPerimeter=0;" parent="6Au5uzRVC5VlOYL2ylWA-5" source="6Au5uzRVC5VlOYL2ylWA-38" target="6Au5uzRVC5VlOYL2ylWA-42" edge="1">
          <mxGeometry relative="1" as="geometry" />
        </mxCell>
        <mxCell id="6Au5uzRVC5VlOYL2ylWA-38" value="digest" style="whiteSpace=wrap;html=1;" parent="6Au5uzRVC5VlOYL2ylWA-5" vertex="1">
          <mxGeometry x="390" y="410" width="90" height="30" as="geometry" />
        </mxCell>
        <mxCell id="6Au5uzRVC5VlOYL2ylWA-43" style="edgeStyle=orthogonalEdgeStyle;rounded=0;orthogonalLoop=1;jettySize=auto;html=1;exitX=1;exitY=0.5;exitDx=0;exitDy=0;entryX=0.5;entryY=0;entryDx=0;entryDy=0;entryPerimeter=0;" parent="6Au5uzRVC5VlOYL2ylWA-5" source="6Au5uzRVC5VlOYL2ylWA-40" target="6Au5uzRVC5VlOYL2ylWA-42" edge="1">
          <mxGeometry relative="1" as="geometry" />
        </mxCell>
        <mxCell id="6Au5uzRVC5VlOYL2ylWA-40" value="digest" style="whiteSpace=wrap;html=1;" parent="6Au5uzRVC5VlOYL2ylWA-5" vertex="1">
          <mxGeometry x="390" y="465" width="90" height="30" as="geometry" />
        </mxCell>
        <mxCell id="6Au5uzRVC5VlOYL2ylWA-48" style="edgeStyle=orthogonalEdgeStyle;rounded=0;orthogonalLoop=1;jettySize=auto;html=1;exitX=0.5;exitY=1;exitDx=0;exitDy=0;exitPerimeter=0;entryX=0.5;entryY=0;entryDx=0;entryDy=0;" parent="6Au5uzRVC5VlOYL2ylWA-5" source="6Au5uzRVC5VlOYL2ylWA-42" target="6Au5uzRVC5VlOYL2ylWA-46" edge="1">
          <mxGeometry relative="1" as="geometry" />
        </mxCell>
        <mxCell id="6Au5uzRVC5VlOYL2ylWA-49" style="edgeStyle=orthogonalEdgeStyle;rounded=0;orthogonalLoop=1;jettySize=auto;html=1;exitX=0;exitY=0.5;exitDx=0;exitDy=0;exitPerimeter=0;entryX=0.5;entryY=0;entryDx=0;entryDy=0;" parent="6Au5uzRVC5VlOYL2ylWA-5" source="6Au5uzRVC5VlOYL2ylWA-42" target="6Au5uzRVC5VlOYL2ylWA-47" edge="1">
          <mxGeometry relative="1" as="geometry" />
        </mxCell>
        <mxCell id="6Au5uzRVC5VlOYL2ylWA-42" value="是否一致？" style="strokeWidth=2;html=1;shape=mxgraph.flowchart.decision;whiteSpace=wrap;" parent="6Au5uzRVC5VlOYL2ylWA-5" vertex="1">
          <mxGeometry x="500" y="530" width="100" height="50" as="geometry" />
        </mxCell>
        <mxCell id="6Au5uzRVC5VlOYL2ylWA-46" value="data 没有被篡改" style="whiteSpace=wrap;html=1;" parent="6Au5uzRVC5VlOYL2ylWA-5" vertex="1">
          <mxGeometry x="503" y="640" width="95" height="30" as="geometry" />
        </mxCell>
        <mxCell id="6Au5uzRVC5VlOYL2ylWA-47" value="data 被篡改" style="whiteSpace=wrap;html=1;" parent="6Au5uzRVC5VlOYL2ylWA-5" vertex="1">
          <mxGeometry x="370" y="640" width="95" height="30" as="geometry" />
        </mxCell>
        <mxCell id="Lb6W9lznvDvHdPBaOTak-1" value="certificate" style="whiteSpace=wrap;html=1;" vertex="1" parent="6Au5uzRVC5VlOYL2ylWA-5">
          <mxGeometry x="45" y="250" width="80" height="30" as="geometry" />
        </mxCell>
        <mxCell id="Lb6W9lznvDvHdPBaOTak-3" value="操作系统、浏览器与 CA 组织合作，预先安装了各家 CA 根证书。&lt;br&gt;（包含了各家 CA 的 public key，所以可以这个 public key 解密对应 CA 的 private key 所加密的 certificate。）" style="whiteSpace=wrap;html=1;" vertex="1" parent="6Au5uzRVC5VlOYL2ylWA-5">
          <mxGeometry x="110" y="60" width="350" height="60" as="geometry" />
        </mxCell>
        <mxCell id="6Au5uzRVC5VlOYL2ylWA-22" style="edgeStyle=orthogonalEdgeStyle;rounded=0;orthogonalLoop=1;jettySize=auto;html=1;exitX=0;exitY=0.5;exitDx=0;exitDy=0;entryX=1;entryY=0.5;entryDx=0;entryDy=0;" parent="6Au5uzRVC5VlOYL2ylWA-2" source="6Au5uzRVC5VlOYL2ylWA-13" target="6Au5uzRVC5VlOYL2ylWA-17" edge="1">
          <mxGeometry relative="1" as="geometry" />
        </mxCell>
        <mxCell id="6Au5uzRVC5VlOYL2ylWA-24" style="edgeStyle=orthogonalEdgeStyle;rounded=0;orthogonalLoop=1;jettySize=auto;html=1;exitX=1;exitY=0.5;exitDx=0;exitDy=0;entryX=0;entryY=0.5;entryDx=0;entryDy=0;" parent="6Au5uzRVC5VlOYL2ylWA-2" source="6Au5uzRVC5VlOYL2ylWA-19" target="6Au5uzRVC5VlOYL2ylWA-23" edge="1">
          <mxGeometry relative="1" as="geometry" />
        </mxCell>
        <mxCell id="6Au5uzRVC5VlOYL2ylWA-36" style="edgeStyle=orthogonalEdgeStyle;rounded=0;orthogonalLoop=1;jettySize=auto;html=1;exitX=1;exitY=0.5;exitDx=0;exitDy=0;entryX=0;entryY=0.5;entryDx=0;entryDy=0;" parent="6Au5uzRVC5VlOYL2ylWA-2" source="6Au5uzRVC5VlOYL2ylWA-29" target="6Au5uzRVC5VlOYL2ylWA-33" edge="1">
          <mxGeometry relative="1" as="geometry">
            <Array as="points">
              <mxPoint x="840" y="475" />
              <mxPoint x="840" y="445" />
            </Array>
          </mxGeometry>
        </mxCell>
        <mxCell id="6Au5uzRVC5VlOYL2ylWA-37" style="edgeStyle=orthogonalEdgeStyle;rounded=0;orthogonalLoop=1;jettySize=auto;html=1;exitX=1;exitY=0.5;exitDx=0;exitDy=0;entryX=0;entryY=0.5;entryDx=0;entryDy=0;" parent="6Au5uzRVC5VlOYL2ylWA-2" source="6Au5uzRVC5VlOYL2ylWA-29" target="6Au5uzRVC5VlOYL2ylWA-35" edge="1">
          <mxGeometry relative="1" as="geometry">
            <Array as="points">
              <mxPoint x="840" y="475" />
              <mxPoint x="840" y="500" />
            </Array>
          </mxGeometry>
        </mxCell>
        <mxCell id="Lb6W9lznvDvHdPBaOTak-2" style="edgeStyle=orthogonalEdgeStyle;rounded=0;orthogonalLoop=1;jettySize=auto;html=1;exitX=1;exitY=0.5;exitDx=0;exitDy=0;entryX=0;entryY=0.5;entryDx=0;entryDy=0;" edge="1" parent="6Au5uzRVC5VlOYL2ylWA-2" source="6Au5uzRVC5VlOYL2ylWA-23" target="Lb6W9lznvDvHdPBaOTak-1">
          <mxGeometry relative="1" as="geometry" />
        </mxCell>
      </root>
    </mxGraphModel>
  </diagram>
</mxfile>
